<svg xmlns="http://www.w3.org/2000/svg" width="209.4" height="41.054" viewBox="0 0 209.4 41.054">
  <path id="パス_289" data-name="パス 289" d="M-105.075-33.2h13.55V0h9.05V-33.2h13.55v-7.85h-36.15Zm41.25-7.85V0h35.75V-7.9h-26.8v-9.6h24v-7.9h-24v-7.8h26.8v-7.85Zm41.6,0V0h9.3V-15.05h12.6c4.4.2,4.8.8,4.75,8.1V0h9.15V-11.95c-.05-3.45-1.1-5.3-3.75-6.75,3.2-1.65,3.85-2.85,3.9-6.8v-7.65c-.2-6.35-2.5-8-10.85-7.9Zm9.3,18.05V-33.2h11.6c4.9.05,5.65.55,5.7,4.1v2.45c-.2,3.25-.75,3.6-5.8,3.65Zm32.75-18.05V0h8.6V-27.5L35.975,0h9.35l7.35-28.1V0h8.7V-41.05h-14L40.725-14.3l-7.7-26.75Zm82.65,0H76.525c-6.35.15-8.9,2.75-9.05,9.2v7.25c.05,4.9,2.8,7.05,8.95,7.1h11.95c5.45.05,6.5.55,6.55,3.15v4c-.05,2.15-.65,2.4-6.1,2.45h-21.1V0h23c5.45-.05,7.65-.35,9.7-1.35,2.35-1.15,3.85-4.1,3.9-7.7v-8.9c-.05-3.45-.8-5.05-2.95-6.4-1.65-.95-2.55-1.05-7.45-1.1H81.175c-3.8-.05-4.4-.35-4.45-2.25v-2.6c.05-2.4.6-2.85,3.7-2.9h22.05Z" transform="translate(105.075 41.054)"/>
</svg>
